<svg xmlns="http://www.w3.org/2000/svg" data-name="Layer 1" viewBox="0 0 485.83373 483.5">
  <path fill="#e6e6e6" d="M320.45872 128.09717h-79.74145a11.47812 11.47812 0 0 1-9.06567-4.39356 11.62154 11.62154 0 0 1-2.17652-9.96777 201.63052 201.63052 0 0 0-.00049-93.647 11.62425 11.62425 0 0 1 2.17676-9.96729 11.47753 11.47753 0 0 1 9.06592-4.39355h79.74145a11.6235 11.6235 0 0 1 11.439 9.75537 337.96108 337.96108 0 0 1 0 102.8584 11.6235 11.6235 0 0 1-11.439 9.7554Z"/>
  <path fill="#fff" d="M240.71727 11.728a5.51264 5.51264 0 0 0-4.35449 2.1084 5.65943 5.65943 0 0 0-1.05371 4.85351 207.656 207.656 0 0 1 .00048 96.44531 5.65638 5.65638 0 0 0 1.053 4.85254l.00049.00049a5.5112 5.5112 0 0 0 4.35425 2.10889h79.74145a5.58248 5.58248 0 0 0 5.50879-4.667 331.9854 331.9854 0 0 0 0-101.03516 5.58248 5.58248 0 0 0-5.50879-4.667Z"/>
  <path fill="#e6e6e6" d="M303.0574 40.57872h-41.845a6.00633 6.00633 0 0 1-5.99977-5.99977v-2.34463a6.00633 6.00633 0 0 1 5.99977-5.99977h41.845a6.00633 6.00633 0 0 1 5.99976 5.99977V34.579a6.00632 6.00632 0 0 1-5.99976 5.99972Zm0 29.62578h-41.845a6.00632 6.00632 0 0 1-5.99977-5.99976V61.8601a6.00632 6.00632 0 0 1 5.99977-5.99976h41.845a6.00632 6.00632 0 0 1 5.99976 5.99976v2.34464a6.00632 6.00632 0 0 1-5.99976 5.99976Zm0 29.62579h-41.845a6.00633 6.00633 0 0 1-5.99977-5.99977v-2.34463a6.00632 6.00632 0 0 1 5.99977-5.99976h41.845a6.00632 6.00632 0 0 1 5.99976 5.99976v2.34463a6.00632 6.00632 0 0 1-5.99976 5.99977Zm167.40132 104.26688h-79.74145a11.47812 11.47812 0 0 1-9.06567-4.39356 11.62154 11.62154 0 0 1-2.17652-9.96777 201.63052 201.63052 0 0 0-.00049-93.647 11.62425 11.62425 0 0 1 2.17676-9.96729 11.47753 11.47753 0 0 1 9.06592-4.39355h79.74145a11.6235 11.6235 0 0 1 11.439 9.75537 337.96108 337.96108 0 0 1 0 102.8584 11.6235 11.6235 0 0 1-11.439 9.7554Z"/>
  <path fill="#fff" d="M390.71727 87.728a5.51264 5.51264 0 0 0-4.35449 2.1084 5.65943 5.65943 0 0 0-1.05371 4.85351 207.656 207.656 0 0 1 .00048 96.44531 5.65638 5.65638 0 0 0 1.053 4.85254l.00049.00049a5.5112 5.5112 0 0 0 4.35425 2.10889h79.74145a5.58248 5.58248 0 0 0 5.50879-4.667 331.9854 331.9854 0 0 0 0-101.03516 5.58248 5.58248 0 0 0-5.50879-4.667Z"/>
  <path fill="#f2f2f2" d="M311.45872 290.59717h-79.74145a11.97546 11.97546 0 0 1-9.45825-4.584 12.1192 12.1192 0 0 1-2.27-10.394 201.13112 201.13112 0 0 0-.00049-93.41357 12.12077 12.12077 0 0 1 2.27026-10.39356 11.97561 11.97561 0 0 1 9.4585-4.584h79.74145a12.12667 12.12667 0 0 1 11.93311 10.1792 338.45925 338.45925 0 0 1 0 103.01074 12.12668 12.12668 0 0 1-11.93313 10.17919Z"/>
  <path fill="#e6e6e6" d="M453.0574 131.57872h-41.845a6.00633 6.00633 0 0 1-5.99977-5.99977v-2.34463a6.00633 6.00633 0 0 1 5.99977-5.99977h41.845a6.00633 6.00633 0 0 1 5.99976 5.99977v2.34468a6.00632 6.00632 0 0 1-5.99976 5.99972Zm0 29.62578h-41.845a6.00632 6.00632 0 0 1-5.99977-5.99976v-2.34464a6.00632 6.00632 0 0 1 5.99977-5.99976h41.845a6.00632 6.00632 0 0 1 5.99976 5.99976v2.34464a6.00632 6.00632 0 0 1-5.99976 5.99976Z"/>
  <circle cx="271.81102" cy="228.5" r="23" fill="#fff"/>
  <path fill="#e6e6e6" d="M282.81102 225.5h-8v-8a3 3 0 0 0-6 0v8h-8a3 3 0 0 0 0 6h8v8a3 3 0 0 0 6 0v-8h8a3 3 0 0 0 0-6Z"/>
  <path fill="#ccc" d="M300.81102 17h-42a4.50508 4.50508 0 0 1-4.5-4.5v-8a4.50508 4.50508 0 0 1 4.5-4.5h42a4.50508 4.50508 0 0 1 4.5 4.5v8a4.50508 4.50508 0 0 1-4.5 4.5Zm152 77h-42a4.50508 4.50508 0 0 1-4.5-4.5v-8a4.50508 4.50508 0 0 1 4.5-4.5h42a4.50508 4.50508 0 0 1 4.5 4.5v8a4.50508 4.50508 0 0 1-4.5 4.5Z"/>
  <path fill="#ffb8b8" d="M88.596 471.061h12.26l3.833-47.288H88.594l.002 47.288z"/>
  <path fill="#2f2e41" d="m85.4692 467.05845 24.1438-.001h.001a15.38605 15.38605 0 0 1 15.38647 15.38623v.5l-39.53051.00146Z"/>
  <path fill="#ffb8b8" d="M22.596 471.061h12.26l5.833-47.288H22.594l.002 47.288z"/>
  <path fill="#2f2e41" d="m19.4692 467.05845 24.1438-.001h.001a15.38605 15.38605 0 0 1 15.38647 15.38623v.5l-39.53051.00146Zm5.30202-10.93589a4.98141 4.98141 0 0 1-3.375-1.31836 4.961 4.961 0 0 1-1.61572-3.53711l-4.91664-176.21338 69.81115 17.45215 21.53955 64.61768a70.461 70.461 0 0 1 3.54541 25.82421l-2.67456 62.63672a4.996 4.996 0 0 1-4.99438 4.75879h-11.709a5.02349 5.02349 0 0 1-4.95483-4.32959l-8.3689-69.1416a37.82338 37.82338 0 0 0-5.53173-15.16406l-16.46949-26.07617a1.00011 1.00011 0 0 0-1.83764.41015L40.29486 451.13037a4.99328 4.99328 0 0 1-4.687 4.39649l-10.552.58691c-.09494.00537-.18966.00879-.28464.00879Z"/>
  <circle cx="73.05767" cy="136.40609" r="24.56103" fill="#ffb8b8"/>
  <path fill="#6c63ff" d="M84.34056 299.67236a5.07628 5.07628 0 0 1-1.25293-.15918h-.00077l-69.26428-17.75976a4.9985 4.9985 0 0 1-3.66285-5.81543l15.90713-85.69092a31.21377 31.21377 0 0 1 18.24975-22.53955 30.11308 30.11308 0 0 1 28.26563 2.07519c.96973.605 1.94653 1.26465 2.90259 1.96094a30.96046 30.96046 0 0 1 12.57885 24.5293l1.2649 98.32861a5.00656 5.00656 0 0 1-4.988 5.0708Z"/>
  <path fill="#ffb8b8" d="M20.94934 300.68008a10.05576 10.05576 0 0 1 4.214-14.83233l-3.08079-35.6018 16.326 8.84848.42262 32.4515a10.11027 10.11027 0 0 1-17.8818 9.13415Z"/>
  <path fill="#6c63ff" d="M26.78197 281.13916a5.53224 5.53224 0 0 1-1.36573-.17285 5.49559 5.49559 0 0 1-3.97192-3.98633l-8.02319-31.88379a47.37028 47.37028 0 0 1 3.76123-33.13476l16.80884-32.88184a15.54083 15.54083 0 0 1 18.8081-11.01855 15.35574 15.35574 0 0 1 9.47485 7.10058 15.56707 15.56707 0 0 1 1.65406 11.91309l-23.92749 53.50586.28418 32.03564a5.5186 5.5186 0 0 1-3.58448 5.20459l-8.00732 2.97363a5.48 5.48 0 0 1-1.91113.34473Z"/>
  <path fill="#ffb8b8" d="M141.31773 287.58467a10.05578 10.05578 0 0 1-8.493-12.86954l-28.99341-20.88926 17.35654-6.60182 24.8717 20.84893a10.11027 10.11027 0 0 1-4.74186 19.51169Z"/>
  <path fill="#6c63ff" d="M126.13986 272.33057a5.52249 5.52249 0 0 1-2.46265-.58155l-29.39915-14.71728a47.381 47.381 0 0 1-22.66064-24.46533L57.66014 198.376a15.54363 15.54363 0 0 1 3.91772-21.44434 15.35158 15.35158 0 0 1 11.59034-2.54346 15.56975 15.56975 0 0 1 10.08081 6.51221l24.94507 53.03955 24.46578 20.6826a5.51764 5.51764 0 0 1 1.60669 6.11182l-2.96973 8.0083a5.474 5.474 0 0 1-2.00684 2.59619 5.49717 5.49717 0 0 1-3.15014.9917Z"/>
  <path fill="#2f2e41" d="M67.90018 161.3431c1.305.571 3.97732-9.82732 2.78025-11.90707-1.78025-3.09293-1.675-3.07072-2.85681-5.117s-1.44623-4.84712.08417-6.64761 5.072-1.56163 5.77042.69581c-.4493-4.2878 3.79189-7.73454 7.993-8.70313s8.63244-.36723 12.85668-1.22917c4.90243-1.00032 10.00316-5.10972 8.04719-10.5007a7.5931 7.5931 0 0 0-1.48106-2.43408c-2.25993-2.54094-5.42117-3.62594-8.512-4.675-6.43006-2.18246-13.036-4.39233-19.82212-4.15141A28.7977 28.7977 0 0 0 47.31356 125.283a26.15571 26.15571 0 0 0-1.08344 4.02534c-2.32924 12.52423 4.94368 24.87794 16.75623 29.64715Z"/>
  <path d="m38.9 273.343.557-32.929L56.9 205.343l-14 36-4 32z" opacity=".2"/>
  <path fill="#e6e6e6" d="m197.07721 355.98244-73.63835-30.59552a11.47817 11.47817 0 0 1-6.68609-7.53565 11.62155 11.62155 0 0 1 1.81454-10.04 201.63062 201.63062 0 0 0 35.9304-86.47983 11.62422 11.62422 0 0 1 5.83445-8.36925 11.47751 11.47751 0 0 1 10.05779-.57884l73.63839 30.59552a11.62349 11.62349 0 0 1 6.8205 13.39769 337.96147 337.96147 0 0 1-39.46512 94.98607 11.6235 11.6235 0 0 1-14.30651 4.61981Z"/>
  <path fill="#fff" d="M168.08779 217.92415a5.51263 5.51263 0 0 0-4.83017.27629 5.65945 5.65945 0 0 0-2.83529 4.07775 207.65608 207.65608 0 0 1-37.00407 89.064 5.65636 5.65636 0 0 0-.88946 4.88515l.00027.00064a5.51116 5.51116 0 0 0 3.21185 3.61814l73.63839 30.59552a5.58247 5.58247 0 0 0 6.87782-2.19616 331.98566 331.98566 0 0 0 38.76558-93.30238 5.58248 5.58248 0 0 0-3.29652-6.42343Z"/>
  <path fill="#6c63ff" d="m207.29714 286.03148-38.6424-16.05527a6.00633 6.00633 0 0 1-3.23855-7.84259l.8996-2.16518a6.00632 6.00632 0 0 1 7.84258-3.23856l38.6424 16.05527a6.00634 6.00634 0 0 1 3.23855 7.84259l-.8996 2.16518a6.00632 6.00632 0 0 1-7.84258 3.23856Zm-11.36694 27.35836-38.6424-16.05527a6.00633 6.00633 0 0 1-3.23855-7.84259l.89959-2.16518a6.00634 6.00634 0 0 1 7.84259-3.23856l38.64243 16.05527a6.00633 6.00633 0 0 1 3.23856 7.84258l-.8996 2.16519a6.00632 6.00632 0 0 1-7.84262 3.23856Z"/>
  <path fill="#ccc" d="M222.78123 247.582a4.48944 4.48944 0 0 1-1.68725-.33057l-38.938-15.74267a4.50518 4.50518 0 0 1-2.48535-5.8584l2.99878-7.417a4.50027 4.50027 0 0 1 5.85864-2.48486l38.938 15.74267a4.50518 4.50518 0 0 1 2.48535 5.8584l-2.99878 7.417a4.51079 4.51079 0 0 1-4.17139 2.81543ZM141 483.5H1a1 1 0 1 1 0-2h140a1 1 0 0 1 0 2Z"/>
</svg>
